<?xml version="1.0" encoding="iso-8859-1"?>
<!-- Generator: Adobe Illustrator 18.0.0, SVG Export Plug-In . SVG Version: 6.00 Build 0)  -->
<!DOCTYPE svg PUBLIC "-//W3C//DTD SVG 1.1//EN" "http://www.w3.org/Graphics/SVG/1.1/DTD/svg11.dtd">
<svg version="1.1" xmlns="http://www.w3.org/2000/svg" xmlns:xlink="http://www.w3.org/1999/xlink" x="0px" y="0px"
	 viewBox="0 0 215.35 215.35" style="enable-background:new 0 0 215.35 215.35;" xml:space="preserve">
<g>
	<path d="M64.792,139.949L15.005,189.74v-31.978c0-4.142-3.357-7.5-7.5-7.5s-7.5,3.358-7.5,7.5v50.086c0,4.142,3.357,7.5,7.5,7.5
		h50.084c4.142,0,7.5-3.358,7.5-7.5s-3.357-7.5-7.5-7.5H25.611l49.788-49.793c2.929-2.929,2.929-7.678-0.001-10.607
		C72.471,137.02,67.722,137.02,64.792,139.949z"/>
	<path d="M207.85,0.002h-50.086c-4.143,0-7.5,3.358-7.5,7.5c0,4.142,3.357,7.5,7.5,7.5h31.979l-48.298,48.301
		c-2.929,2.929-2.929,7.678,0.001,10.607c1.464,1.464,3.384,2.196,5.303,2.196c1.919,0,3.839-0.733,5.304-2.197l48.298-48.301v31.98
		c0,4.142,3.357,7.5,7.5,7.5c4.143,0,7.5-3.358,7.5-7.5V7.502C215.35,3.359,211.992,0.002,207.85,0.002z"/>
</g>
</svg>
