<?xml version="1.0" encoding="utf-8"?>
<!-- Generator: Adobe Illustrator 16.0.0, SVG Export Plug-In . SVG Version: 6.00 Build 0)  -->
<!DOCTYPE svg PUBLIC "-//W3C//DTD SVG 1.1//EN" "http://www.w3.org/Graphics/SVG/1.1/DTD/svg11.dtd">
<svg version="1.1" id="Layer_1" xmlns="http://www.w3.org/2000/svg" xmlns:xlink="http://www.w3.org/1999/xlink" x="0px" y="0px"
	 width="343.5px" height="85.5px" viewBox="0 0 343.5 85.5" enable-background="new 0 0 343.5 85.5" xml:space="preserve">
<style>
  path {
    fill: #00223E;
  }
</style>
  <g>
	<g>
		<path d="M44.458,45.855c2.919,3.161,4.38,7.421,4.38,12.78c0,6.96-2.52,12.3-7.56,16.02
			c-5.04,3.72-12.36,5.58-21.96,5.58c-5.601,0-10.68-0.12-15.24-0.36l0.36-23.28l-0.36-53.4l18.24-0.12
			c6.72,0,11.919,1.56,15.6,4.68c3.679,3.12,5.52,7.602,5.52,13.44c0,4.641-1.001,8.52-3,11.64c-2,3.12-4.841,5.441-8.52,6.96
			C37.358,40.676,41.537,42.696,44.458,45.855z M36.659,70.635c3.96-2.88,5.94-6.999,5.94-12.36c0-4.479-1.44-7.999-4.32-10.56
			c-2.88-2.559-7.041-4.119-12.48-4.68l-15.6,0.12l-0.12,13.08l0.24,18.36c3.12,0.24,6.279,0.36,9.48,0.36
			C27.077,74.955,32.699,73.515,36.659,70.635z M33.179,11.775c-2.601-2.28-6.42-3.42-11.46-3.42h-11.28l-0.24,29.28l14.4,0.24
			c4.08-0.879,7.179-2.659,9.3-5.34c2.119-2.68,3.18-6.259,3.18-10.74C37.079,17.396,35.777,14.055,33.179,11.775z"/>
	</g>
	<g>
		<path d="M104.626,62.935v0.84c-1.521,0.64-3.281,1.08-5.28,1.32l-1.08-0.6c-5.921-7.999-11.121-15.679-15.6-23.04
			l-12.24,0.12v4.32l0.12,18.48h-5.88l0.24-18l-0.24-41.4l17.52-0.12c6.079,0,10.759,1.46,14.04,4.38
			c3.28,2.921,4.92,7.062,4.92,12.42c0,4.242-1.161,7.961-3.48,11.16c-2.321,3.201-5.64,5.64-9.96,7.32
			C92.746,47.736,98.386,55.335,104.626,62.935z M70.426,36.535l12.48,0.24c4-1.039,7.02-2.799,9.06-5.28
			c2.04-2.479,3.06-5.599,3.06-9.36c0-7.839-4.602-12-13.8-12.48l-10.56,0.24L70.426,36.535z"/>
		<path d="M128.265,45.895l0.12,18.48h-5.88l0.24-18l-0.24-41.4h6L128.265,45.895z"/>
		<path d="M199.665,47.215v17.16h-6.24l-35.04-49.56h-0.48l-0.12,30.36l0.12,19.2h-5.52l0.24-17.52l-0.12-41.88h6.24
			l35.04,49.68h0.6V5.215l5.52-0.36L199.665,47.215z"/>
		<path d="M257.264,5.695l-0.48,4.8l-10.68-0.48h-7.44l-0.24,35.88l0.24,18.48h-5.88l0.12-18l-0.12-36.36h-7.32
			l-10.92,0.48l-0.48-0.6l0.48-4.92h42.36L257.264,5.695z"/>
		<path d="M279.104,45.895l0.12,18.48h-5.88l0.24-18l-0.24-41.4h6L279.104,45.895z"/>
		<path d="M340.064,9.175l-1.2,5.4l-0.96,0.24c-2.081-1.68-4.46-2.979-7.14-3.9c-2.682-0.919-5.501-1.38-8.46-1.38
			c-6.801,0-11.981,2.121-15.54,6.36c-3.561,4.241-5.34,10.481-5.34,18.72c0,8.24,1.74,14.52,5.22,18.84
			c3.48,4.32,8.5,6.48,15.06,6.48c2.958,0,5.94-0.52,8.94-1.56c3-1.039,5.739-2.479,8.22-4.32l0.84,0.36l-0.48,5.4
			c-5.52,3.441-11.4,5.16-17.64,5.16c-8.48,0-15-2.599-19.56-7.8c-4.56-5.199-6.84-12.6-6.84-22.2c0-9.759,2.4-17.28,7.2-22.56
			c4.8-5.28,11.599-7.92,20.4-7.92C329.343,4.495,335.103,6.055,340.064,9.175z"/>
	</g>

		<line fill="#222B37" stroke="#222B37" stroke-width="5" stroke-miterlimit="10" x1="64" y1="79.875" x2="339.396" y2="79.875"/>
</g>
</svg>
