<?xml version="1.0" encoding="utf-8"?>
<!-- Generator: Adobe Illustrator 22.1.0, SVG Export Plug-In . SVG Version: 6.00 Build 0)  -->
<svg version="1.1" id="Layer_1" xmlns="http://www.w3.org/2000/svg" xmlns:xlink="http://www.w3.org/1999/xlink" x="0px" y="0px"
	 viewBox="0 0 117 117" style="enable-background:new 0 0 117 117;" xml:space="preserve">
<style type="text/css">
	.st0{fill:#231F20;}
</style>
<g>
	<g>
		<g>
			<path class="st0" d="M34.5,38C49.3,52.9,64.1,67.7,79,82.5c2.3,2.3,5.8-1.3,3.5-3.5C67.7,64.1,52.9,49.3,38,34.5
				C35.7,32.2,32.2,35.7,34.5,38L34.5,38z"/>
		</g>
	</g>
	<g>
		<g>
			<path class="st0" d="M79,34.5C64.1,49.3,49.3,64.1,34.5,79c-2.3,2.3,1.3,5.8,3.5,3.5C52.9,67.7,67.7,52.9,82.5,38
				C84.8,35.7,81.3,32.2,79,34.5L79,34.5z"/>
		</g>
	</g>
	<g>
		<g>
			<path class="st0" d="M5.6,58.5c0.3-22,13.9-42.1,34.8-49.7C61.1,1.2,84.8,7.6,99,24.5c14.4,17,16.3,42,4.9,61.1
				c-11.3,19-34.1,29.2-55.8,24.8C23.5,105.4,5.9,83.5,5.6,58.5c0-3.2-5-3.2-5,0c0.3,24.1,15.2,45.8,37.8,54.3
				c22.9,8.6,49.6,1.2,65-17.8c15.1-18.7,17.2-45.5,4.9-66.2C95.9,8.1,71.3-2.8,47.5,1.6C20.3,6.8,0.9,31.2,0.6,58.5
				C0.5,61.7,5.5,61.7,5.6,58.5z"/>
		</g>
	</g>
</g>
</svg>
