<?xml version="1.0" encoding="utf-8"?>
<!-- Generator: Adobe Illustrator 22.1.0, SVG Export Plug-In . SVG Version: 6.00 Build 0)  -->
<svg version="1.1" id="Layer_1" xmlns="http://www.w3.org/2000/svg" xmlns:xlink="http://www.w3.org/1999/xlink" x="0px" y="0px"
	 viewBox="0 0 117 117" style="enable-background:new 0 0 117 117;" xml:space="preserve">
<style type="text/css">
	.st0{fill:#231F20;}
</style>
<g>
	<g>
		<g>
			<path class="st0" d="M31.2,38.2c16,16,32.1,32.1,48.1,48.1c4.6,4.6,11.6-2.5,7.1-7.1c-16-16-32.1-32.1-48.1-48.1
				C33.7,26.6,26.6,33.7,31.2,38.2L31.2,38.2z"/>
		</g>
	</g>
	<g>
		<g>
			<path class="st0" d="M79.3,31.2c-16,16-32.1,32.1-48.1,48.1c-4.6,4.6,2.5,11.6,7.1,7.1c16-16,32.1-32.1,48.1-48.1
				C90.9,33.7,83.8,26.6,79.3,31.2L79.3,31.2z"/>
		</g>
	</g>
	<g>
		<g>
			<path class="st0" d="M12,58.8c0.3-19.4,12.2-37.3,30.7-43.9c18.6-6.7,39.6-0.9,52.2,14.2c12.6,15.2,14,37.3,3.8,54
				c-10,16.4-29.9,25.4-48.9,21.6C27.9,100.2,12.3,81,12,58.8c-0.1-6.4-10.1-6.4-10,0c0.3,23.8,15,45.1,37.4,53.4
				c22.1,8.2,48,1.1,62.9-17.1c15.2-18.4,17.4-45.1,4.9-65.7C95,9.1,71-1.3,47.8,3.1C21.3,8,2.4,32.1,2,58.8
				C1.9,65.2,11.9,65.2,12,58.8z"/>
		</g>
	</g>
</g>
</svg>
